<svg xmlns="http://www.w3.org/2000/svg" viewBox="0 0 1200 900" role="img" aria-label="Soporte para auriculares estable y configurable">
  <defs>
    <radialGradient id="bg" cx="58%" cy="18%" r="82%"><stop offset="0" stop-color="#ffffff"/><stop offset=".43" stop-color="#d9ecff"/><stop offset="1" stop-color="#9fc8ee"/></radialGradient>
    <linearGradient id="body" x1="0" y1="0" x2="1" y2="1"><stop offset="0" stop-color="#384556"/><stop offset=".52" stop-color="#1f2b3a"/><stop offset="1" stop-color="#0b1220"/></linearGradient>
    <filter id="shadow"><feDropShadow dx="0" dy="24" stdDeviation="20" flood-color="#0b2545" flood-opacity=".26"/></filter>
    <pattern id="grid" width="62" height="62" patternUnits="userSpaceOnUse"><path d="M62 0H0v62" fill="none" stroke="#3b82f6" stroke-opacity=".10"/></pattern>
  </defs>
  <rect width="1200" height="900" fill="url(#bg)"/><rect width="1200" height="900" fill="url(#grid)"/>
  <ellipse cx="604" cy="708" rx="360" ry="66" fill="#3b82f6" opacity=".13"/>
  <g filter="url(#shadow)">
    <path d="M357 610 645 532l268 77c27 8 45 33 42 61l-3 26H315l-3-26c-3-28 16-53 45-60Z" fill="#101827"/>
    <path d="M561 214h152c52 0 94 42 94 94v42H467v-42c0-52 42-94 94-94Z" fill="url(#body)"/>
    <path d="M528 340h218v247H528Z" fill="#334155"/>
    <path d="M420 330h432c42 0 76 34 76 76v34H344v-34c0-42 34-76 76-76Z" fill="#0b1220"/>
    <path d="M468 395h340" stroke="#cbd5e1" stroke-opacity=".34" stroke-width="14" stroke-linecap="round"/>
  </g>
  <text x="72" y="810" fill="#cbd5e1" font-family="Inter,Arial,sans-serif" font-size="24" font-weight="800" letter-spacing="4">SOPORTE AURICULARES</text>
</svg>
