<svg xmlns="http://www.w3.org/2000/svg" viewBox="0 0 1200 900" role="img" aria-label="Caja Raspberry Pi ventilada configurable">
  <defs>
    <radialGradient id="bg" cx="58%" cy="20%" r="82%"><stop offset="0" stop-color="#ffffff"/><stop offset=".42" stop-color="#d9ecff"/><stop offset="1" stop-color="#9fc8ee"/></radialGradient>
    <linearGradient id="top" x1="0" y1="0" x2="1" y2="1"><stop offset="0" stop-color="#384556"/><stop offset=".55" stop-color="#1f2b3a"/><stop offset="1" stop-color="#0b1220"/></linearGradient>
    <linearGradient id="front" x1="0" y1="0" x2="0" y2="1"><stop offset="0" stop-color="#263445"/><stop offset="1" stop-color="#101827"/></linearGradient>
    <filter id="shadow"><feDropShadow dx="0" dy="24" stdDeviation="20" flood-color="#0b2545" flood-opacity=".26"/></filter>
    <pattern id="grid" width="62" height="62" patternUnits="userSpaceOnUse"><path d="M62 0H0v62" fill="none" stroke="#3b82f6" stroke-opacity=".10"/></pattern>
  </defs>
  <rect width="1200" height="900" fill="url(#bg)"/><rect width="1200" height="900" fill="url(#grid)"/>
  <ellipse cx="606" cy="710" rx="374" ry="70" fill="#3b82f6" opacity=".13"/>
  <g filter="url(#shadow)">
    <path d="M286 318 548 206 914 284 650 410Z" fill="url(#top)"/>
    <path d="M286 318 650 410v166L286 478Z" fill="url(#front)"/>
    <path d="M650 410 914 284v166L650 576Z" fill="#101827"/>
    <path d="M390 350 548 286 789 336 628 407Z" fill="#9fc8ee" opacity=".28"/>
    <g fill="#071321" stroke="#93c5fd" stroke-opacity=".8" stroke-width="4">
      <circle cx="364" cy="337" r="13"/><circle cx="548" cy="256" r="13"/><circle cx="819" cy="315" r="13"/><circle cx="631" cy="402" r="13"/>
    </g>
    <g stroke="#cbd5e1" stroke-opacity=".45" stroke-width="8" stroke-linecap="round">
      <path d="M452 344 670 390"/><path d="M487 326 706 371"/><path d="M524 309 742 354"/>
    </g>
    <g fill="#071321" opacity=".9">
      <rect x="360" y="470" width="78" height="23" rx="5"/><rect x="470" y="500" width="130" height="22" rx="5"/><rect x="722" y="437" width="98" height="28" rx="6"/>
    </g>
  </g>
  <text x="72" y="810" fill="#cbd5e1" font-family="Inter,Arial,sans-serif" font-size="24" font-weight="800" letter-spacing="4">CAJA RASPBERRY PI</text>
</svg>
